# xmcd
#
# Track frame offsets: 
#        150
#        26357
#        54985
#        90265
#        125659
#        143770
#        166178
#        182393
#        225543
#        241042
#
# Disc length: 3571 seconds
#
# Revision: 0
# Processed by: cddbd v1.5.2PL0 Copyright (c) Steve Scherf et al.
# Submitted via: ExactAudioCopy v0.90b4
#
DISCID=690df10a
DTITLE=David K. Mathews - The Coltrane Connection
DYEAR=2004
DGENRE=Blues
TTITLE0=Airegin
TTITLE1=It's Easy To Remember
TTITLE2=Nite Trane
TTITLE3=Soul Eyes
TTITLE4=Count up
TTITLE5=Four By Five
TTITLE6=They Say it's Wonderful
TTITLE7=Dr. Jackle
TTITLE8=Soul Trane
TTITLE9=Thelonius Nutty Dance
EXTD=
EXTT0=
EXTT1=
EXTT2=
EXTT3=
EXTT4=
EXTT5=
EXTT6=
EXTT7=
EXTT8=
EXTT9=
PLAYORDER=
